<?xml version="1.0" encoding="UTF-8"?>
<svg width="116929px" height="21000px" viewBox="0 0 116929 21000" xmlns="http://www.w3.org/2000/svg" xmlns:xlink="http://www.w3.org/1999/xlink" version="1.1">
 <!-- Generated by Pixelmator Pro 1.8 -->
 <g id="Laag_x0020_1">
  <path id="Path" d="M7440 17941 L7440 3206 13705 3206 C15280 3206 16422 3340 17136 3604 17850 3868 18422 4338 18851 5014 19280 5693 19493 6465 19493 7337 19493 8442 19167 9358 18519 10078 17871 10795 16896 11251 15603 11437 16248 11814 16780 12226 17198 12676 17617 13125 18179 13921 18889 15067 L20690 17942 17132 17942 14981 14734 C14216 13588 13695 12868 13413 12569 13132 12271 12833 12068 12518 11955 12202 11845 11705 11790 11019 11790 L10419 11790 10419 17941 7441 17941 Z M10418 9436 L12617 9436 C14044 9436 14936 9378 15293 9258 15646 9138 15924 8929 16127 8634 16326 8339 16429 7972 16429 7529 16429 7032 16295 6634 16031 6328 15767 6023 15393 5831 14909 5748 14669 5717 13945 5700 12737 5700 L10418 5700 Z" fill="#008dd2" fill-opacity="1" stroke="none"/>
  <path id="1" d="M22299 17941 L22299 3205 33222 3205 33222 5700 25273 5700 25273 8966 32670 8966 32670 11446 25273 11446 25273 15457 33503 15457 33503 17941 Z" fill="#008dd2" fill-opacity="1" stroke="none"/>
  <path id="12" d="M45456 12523 L48338 13436 C47895 15045 47161 16239 46132 17021 45106 17800 43799 18191 42218 18191 40262 18191 38653 17522 37394 16187 36135 14849 35504 13020 35504 10705 35504 8252 36139 6348 37405 4989 38671 3634 40335 2955 42400 2955 44201 2955 45666 3487 46791 4554 47463 5182 47964 6088 48301 7268 L45354 7971 C45182 7206 44819 6602 44263 6160 43711 5717 43038 5498 42249 5498 41158 5498 40269 5889 39590 6675 38911 7457 38571 8727 38571 10483 38571 12346 38904 13674 39576 14463 40245 15256 41116 15650 42187 15650 42979 15650 43659 15400 44228 14895 44798 14394 45206 13602 45456 12524 Z" fill="#008dd2" fill-opacity="1" stroke="none"/>
  <path id="123" d="M68010 17941 L68010 3205 72463 3205 75135 13258 77777 3205 82240 3205 82240 17941 79479 17941 79479 6341 76552 17941 73688 17941 70772 6341 70772 17941 Z" fill="#008dd2" fill-opacity="1" stroke="none"/>
  <path id="1234" d="M85198 17941 L85198 3205 96121 3205 96121 5700 88172 5700 88172 8966 95569 8966 95569 11446 88172 11446 88172 15457 96403 15457 96403 17941 Z" fill="#008dd2" fill-opacity="1" stroke="none"/>
  <path id="12345" d="M102242 17941 L102242 5700 97871 5700 97871 3205 109580 3205 109580 5700 105220 5700 105220 17941 Z" fill="#008dd2" fill-opacity="1" stroke="none"/>
  <path id="Path-1" d="M61200 3561 C59512 2620 56499 1763 53900 1733 L7350 1733 M54963 17656 C57308 18450 60868 19217 64124 19238 L109464 19238 M53926 10564 C53926 12231 54314 13497 55082 14359 55854 15220 56832 15649 58019 15649 59203 15649 60177 15224 60939 14366 61697 13512 62078 12232 62078 10523 62078 8835 61707 7576 60970 6742 60229 5912 59244 5497 58019 5497 56791 5497 55803 5919 55051 6760 54303 7601 53926 8867 53926 10565 Z M50862 10663 C50862 9160 51085 7901 51534 6882 51870 6134 52327 5458 52906 4861 53486 4268 54120 3825 54810 3537 55729 3146 56786 2954 57987 2954 58666 2954 59302 3020 59895 3151 61201 3440 62301 4048 63198 4975 64501 6321 65154 8193 65154 10591 65154 12972 64506 14832 63212 16176 61919 17517 60189 18190 58028 18190 57377 18190 56766 18131 56194 18013 54840 17734 53708 17125 52799 16186 51505 14849 50861 13006 50861 10662 Z" fill="none" stroke="#008dd2" stroke-width="590.551" stroke-opacity="1" stroke-linejoin="round"/>
  <g id="group">
   <path id="Path-2" d="M49318 2028 L47575 2028 47575 1437 49318 1437 Z M49075 754 L51881 1733 49075 2712 49075 755 Z" fill="#008dd2" fill-opacity="1" stroke="none"/>
  </g>
  <g id="group-1">
   <path id="Path-3" d="M65313 19563 L64124 19563 64124 18972 65313 18972 Z M65070 18289 L67876 19268 65070 20247 65070 18290 Z" fill="#008dd2" fill-opacity="1" stroke="none"/>
  </g>
 </g>
</svg>
