<?xml version="1.0" encoding="UTF-8"?>
<svg width="23386px" height="21000px" viewBox="0 0 23386 21000" xmlns="http://www.w3.org/2000/svg" xmlns:xlink="http://www.w3.org/1999/xlink" version="1.1">
 <!-- Generated by Pixelmator Pro 1.8 -->
 <g id="Laag_x0020_1">
  <path id="Path" d="M14984 3561 C13296 2620 10283 1763 7684 1733 L-38866 1733 M8747 17656 C11092 18450 14652 19217 17908 19238 L63248 19238 M7710 10564 C7710 12231 8098 13497 8866 14359 9638 15220 10616 15649 11803 15649 12987 15649 13961 15224 14723 14366 15481 13512 15862 12232 15862 10523 15862 8835 15491 7576 14754 6742 14013 5912 13028 5497 11803 5497 10575 5497 9587 5919 8835 6760 8087 7601 7710 8867 7710 10565 Z M4646 10663 C4646 9160 4869 7901 5318 6882 5654 6134 6111 5458 6690 4861 7270 4268 7904 3825 8594 3537 9513 3146 10570 2954 11771 2954 12450 2954 13086 3020 13679 3151 14985 3440 16085 4048 16982 4975 18285 6321 18938 8193 18938 10591 18938 12972 18290 14832 16996 16176 15703 17517 13973 18190 11812 18190 11161 18190 10550 18131 9978 18013 8624 17734 7492 17125 6583 16186 5289 14849 4645 13006 4645 10662 Z" fill="none" stroke="#008dd2" stroke-width="590.551" stroke-opacity="1" stroke-linejoin="round"/>
  <g id="group">
   <path id="Path-1" d="M3102 2028 L1359 2028 1359 1437 3102 1437 Z M2859 754 L5665 1733 2859 2712 2859 755 Z" fill="#008dd2" fill-opacity="1" stroke="none"/>
  </g>
  <g id="group-1">
   <path id="Path-2" d="M19097 19563 L17908 19563 17908 18972 19097 18972 Z M18854 18289 L21660 19268 18854 20247 18854 18290 Z" fill="#008dd2" fill-opacity="1" stroke="none"/>
  </g>
 </g>
</svg>
